#!OML:ASF I:\golf\golf\golf 2\Subject 1\2002-09-07\Subject1.ASF
:FULLY-SPECIFIED
:DEGREES
347
root -5.45175 18.0681 -2.49228 -169.671 14.3656 -175.064
lowerback -4.79274 12.3208 18.0464
upperback -11.6844 20.9178 6.02552
thorax -7.30765 10.6519 -2.7728
lowerneck -7.61386 -19.3995 -2.81029
upperneck 15.5312 -28.0117 2.05147
head 6.66037 -13.9538 -1.33813
rclavicle 1.43125e-014 2.70347e-014
rhumerus 98.0914 38.3891 -56.1348
rradius 46.814
rwrist 3.75579
rhand -18.1757 18.0268
rfingers 7.12502
rthumb 8.10073 -11.7979
lclavicle 1.43125e-014 2.70347e-014
lhumerus 51.9032 9.52679 78.9216
lradius 68.1124
lwrist 32.8614
lhand -24.8064 20.7042
lfingers 7.12502
lthumb -178.301 -129.323
rfemur 10.2669 -11.7204 15.6494
rtibia 20.817
rfoot -13.12 -42.2627
rtoes 45.2751
lfemur -23.2008 -10.909 -15.7426
ltibia 23.6818
lfoot 0.243541 -40.7011
ltoes 12.5927
348
root -5.42343 18.0689 -2.56609 -169.288 13.0359 -174.947
lowerback -5.17468 12.4252 17.8285
upperback -12.1752 21.102 5.46444
thorax -7.49101 10.741 -3.18814
lowerneck -8.10337 -19.4228 -2.99699
upperneck 15.2433 -27.8469 2.18368
head 6.68478 -13.8313 -1.3052
rclavicle -3.65764e-014 1.35174e-013
rhumerus 99.8604 37.3586 -55.463
rradius 48.3141
rwrist 4.63276
rhand -19.3877 18.1712
rfingers 7.12502
rthumb 6.93087 -11.6954
lclavicle -3.65764e-014 1.35174e-013
lhumerus 54.2612 10.1997 78.5849
lradius 68.9019
lwrist 32.1344
lhand -24.6518 19.6274
lfingers 7.12502
lthumb -178.152 -130.401
rfemur 10.7527 -12.1822 16.2478
rtibia 19.7844
rfoot -13.2898 -43.144
rtoes 46.824
lfemur -23.6951 -11.5244 -15.4431
ltibia 23.954
lfoot 1.83794 -41.2409
ltoes 15.6583
349
root -5.39936 18.0681 -2.64167 -168.924 11.7843 -174.862
lowerback -5.59279 12.5376 17.6024
upperback -12.6148 21.2576 4.88593
thorax -7.5884 10.8202 -3.59479
lowerneck -8.59974 -19.492 -3.03834
upperneck 14.8319 -27.7715 2.35311
head 6.65829 -13.7486 -1.27473
rclavicle -1.28812e-013 -9.38264e-014
rhumerus 101.388 36.3264 -54.9372
rradius 50.0217
rwrist 5.62604
rhand -20.7698 18.2787
rfingers 7.12502
rthumb 5.59659 -11.6274
lclavicle -1.28812e-013 -9.38264e-014
lhumerus 56.5366 10.9715 77.8146
lradius 69.7174
lwrist 31.7725
lhand -24.5706 18.5078
lfingers 7.12502
lthumb -178.074 -131.521
rfemur 11.2449 -12.5713 16.7769
rtibia 18.7474
rfoot -12.1869 -44.1091
rtoes 47.4127
lfemur -24.1546 -12.1554 -15.1874
ltibia 24.2413
lfoot 3.06132 -41.6499
ltoes 17.8872
350
root -5.37446 18.0663 -2.71584 -168.716 10.569 -174.775
lowerback -5.98706 12.6042 17.3811
upperback -12.9609 21.3367 4.39449
thorax -7.63177 10.8687 -3.91723
lowerneck -8.6057 -19.5569 -3.07715
upperneck 14.0018 -27.7087 2.68192
head 6.44131 -13.6906 -1.12068
rclavicle 1.1609e-013 -1.00187e-013
rhumerus 102.686 35.4506 -54.5996
rradius 51.8448
rwrist 6.64104
rhand -22.1279 18.6854
rfingers 7.12502
rthumb 4.28525 -11.2512
lclavicle 1.1609e-013 -1.00187e-013
lhumerus 58.7999 12.0931 77.4017
lradius 70.9598
lwrist 33.4847
lhand -23.0356 18.6655
lfingers 7.12502
lthumb -176.591 -131.382
rfemur 11.9062 -12.8941 17.2849
rtibia 17.6831
rfoot -10.6622 -44.6803
rtoes 45.472
lfemur -24.4501 -12.8205 -14.9222
ltibia 24.5504
lfoot 3.08286 -42.2305
ltoes 18.3852
351
root -5.34718 18.0658 -2.78621 -168.53 9.35104 -174.585
lowerback -6.38888 12.6014 17.1949
upperback -13.2824 21.3423 3.99271
thorax -7.68518 10.8887 -4.17514
lowerneck -8.65207 -19.5906 -3.25209
upperneck 13.4993 -27.6525 2.99009
head 6.35277 -13.6407 -0.991337
rclavicle 5.24792e-014 -2.70347e-014
rhumerus 103.787 34.7875 -54.4437
rradius 53.7677
rwrist 7.73132
rhand -23.3295 19.1426
rfingers 7.12502
rthumb 3.12488 -10.8142
lclavicle 5.24792e-014 -2.70347e-014
lhumerus 60.6472 12.8855 76.4412
lradius 71.8784
lwrist 33.2763
lhand -23.045 17.687
lfingers 7.12502
lthumb -176.6 -132.36
rfemur 12.575 -13.1121 17.934
rtibia 16.6212
rfoot -9.01563 -45.1793
rtoes 45.4013
lfemur -24.7163 -13.4783 -14.5192
ltibia 24.8313
lfoot 3.64916 -42.6411
ltoes 19.954
